# xmcd CD database file
#
# Track frame offsets:
#	187
#	19585
#	38962
#	61607
#
# Disc length: 1121 seconds
#
# Revision: 0
# Processed by: cddbd v1.5PL3 Copyright (c) Steve Scherf et al.
# Submitted via: CDex 1.50beta9
#
DISCID=25045f04
DTITLE=香西かおり - 流恋草
DYEAR=1991
DGENRE=Other
TTITLE0=流恋草
TTITLE1=流恋草　カラオケ
TTITLE2=早稲田通り
TTITLE3=早稲田通り　カラオケ
EXTD=YEAR: 1991
EXTT0=
EXTT1=
EXTT2=
EXTT3=
PLAYORDER=
